<mxfile host="app.diagrams.net" agent="Mozilla/5.0 (Windows NT 10.0; Win64; x64) AppleWebKit/537.36 (KHTML, like Gecko) Chrome/109.0.0.0 Safari/537.36" version="28.0.6">
  <diagram name="第 1 页" id="CiCFkFMjwpyb_jTsHgdo">
    <mxGraphModel dx="463" dy="199" grid="1" gridSize="10" guides="1" tooltips="1" connect="1" arrows="1" fold="1" page="1" pageScale="1" pageWidth="827" pageHeight="1169" math="0" shadow="0">
      <root>
        <mxCell id="0" />
        <mxCell id="1" parent="0" />
        <mxCell id="XuMk4djl-JNo7iD4VEXT-5" style="edgeStyle=orthogonalEdgeStyle;rounded=0;orthogonalLoop=1;jettySize=auto;html=1;exitX=0.5;exitY=0;exitDx=0;exitDy=0;entryX=0.5;entryY=1;entryDx=0;entryDy=0;" edge="1" parent="1" source="XuMk4djl-JNo7iD4VEXT-1" target="XuMk4djl-JNo7iD4VEXT-2">
          <mxGeometry relative="1" as="geometry" />
        </mxCell>
        <mxCell id="XuMk4djl-JNo7iD4VEXT-1" value="Norm" style="rounded=0;whiteSpace=wrap;html=1;" vertex="1" parent="1">
          <mxGeometry x="250" y="310" width="100" height="30" as="geometry" />
        </mxCell>
        <mxCell id="XuMk4djl-JNo7iD4VEXT-4" value="" style="edgeStyle=orthogonalEdgeStyle;rounded=0;orthogonalLoop=1;jettySize=auto;html=1;" edge="1" parent="1" source="XuMk4djl-JNo7iD4VEXT-2" target="XuMk4djl-JNo7iD4VEXT-3">
          <mxGeometry relative="1" as="geometry" />
        </mxCell>
        <mxCell id="XuMk4djl-JNo7iD4VEXT-2" value="添加位置信息" style="rounded=0;whiteSpace=wrap;html=1;" vertex="1" parent="1">
          <mxGeometry x="250" y="260" width="100" height="30" as="geometry" />
        </mxCell>
        <mxCell id="XuMk4djl-JNo7iD4VEXT-9" style="edgeStyle=orthogonalEdgeStyle;rounded=0;orthogonalLoop=1;jettySize=auto;html=1;exitX=0.5;exitY=0;exitDx=0;exitDy=0;entryX=0.5;entryY=1;entryDx=0;entryDy=0;" edge="1" parent="1" source="XuMk4djl-JNo7iD4VEXT-3" target="XuMk4djl-JNo7iD4VEXT-6">
          <mxGeometry relative="1" as="geometry" />
        </mxCell>
        <mxCell id="XuMk4djl-JNo7iD4VEXT-3" value="Self Attention" style="rounded=0;whiteSpace=wrap;html=1;" vertex="1" parent="1">
          <mxGeometry x="250" y="210" width="100" height="30" as="geometry" />
        </mxCell>
        <mxCell id="XuMk4djl-JNo7iD4VEXT-12" style="edgeStyle=orthogonalEdgeStyle;rounded=0;orthogonalLoop=1;jettySize=auto;html=1;exitX=0.5;exitY=0;exitDx=0;exitDy=0;entryX=0.25;entryY=1;entryDx=0;entryDy=0;" edge="1" parent="1" source="XuMk4djl-JNo7iD4VEXT-6" target="XuMk4djl-JNo7iD4VEXT-10">
          <mxGeometry relative="1" as="geometry" />
        </mxCell>
        <mxCell id="XuMk4djl-JNo7iD4VEXT-6" value="Dropout" style="rounded=0;whiteSpace=wrap;html=1;" vertex="1" parent="1">
          <mxGeometry x="250" y="160" width="100" height="30" as="geometry" />
        </mxCell>
        <mxCell id="XuMk4djl-JNo7iD4VEXT-10" value="Dropout" style="rounded=0;whiteSpace=wrap;html=1;" vertex="1" parent="1">
          <mxGeometry x="250" y="90" width="200" height="30" as="geometry" />
        </mxCell>
      </root>
    </mxGraphModel>
  </diagram>
</mxfile>
